M48
; DRILL file {KiCad (5.1.8)-1} date 11/28/20 19:45:43
; FORMAT={-:-/ absolute / metric / decimal}
; #@! TF.CreationDate,2020-11-28T19:45:43+01:00
; #@! TF.GenerationSoftware,Kicad,Pcbnew,(5.1.8)-1
; #@! TF.FileFunction,Plated,1,2,PTH
FMAT,2
METRIC
T1C0.200
%
G90
G05
T1
X9.27Y-23.24
X11.47Y-20.94
X13.64Y-20.92
X20.5Y-10.72
X25.275Y-11.395
X25.409Y-10.203
X25.511Y-13.533
X25.542Y-14.715
X25.795Y-12.322
X25.879Y-8.799
X28.015Y-8.882
X28.635Y-8.769
X28.645Y-20.064
X29.219Y-9.802
X30.179Y-21.643
X30.718Y-20.058
X30.865Y-18.095
X32.034Y-8.785
X33.29Y-25.499
X39.95Y-19.0
X40.55Y-25.05
T0
M30
