G04 #@! TF.GenerationSoftware,KiCad,Pcbnew,(5.1.8)-1*
G04 #@! TF.CreationDate,2020-11-28T19:45:41+01:00*
G04 #@! TF.ProjectId,MM1_EEPROM_32k_A,4d4d315f-4545-4505-924f-4d5f33326b5f,R1*
G04 #@! TF.SameCoordinates,PX6b49d20PY52f83c0*
G04 #@! TF.FileFunction,Copper,L1,Top*
G04 #@! TF.FilePolarity,Positive*
%FSLAX46Y46*%
G04 Gerber Fmt 4.6, Leading zero omitted, Abs format (unit mm)*
G04 Created by KiCad (PCBNEW (5.1.8)-1) date 2020-11-28 19:45:41*
%MOMM*%
%LPD*%
G01*
G04 APERTURE LIST*
G04 #@! TA.AperFunction,SMDPad,CuDef*
%ADD10R,1.700000X7.500000*%
G04 #@! TD*
G04 #@! TA.AperFunction,ViaPad*
%ADD11C,0.450000*%
G04 #@! TD*
G04 #@! TA.AperFunction,Conductor*
%ADD12C,0.250000*%
G04 #@! TD*
G04 #@! TA.AperFunction,Conductor*
%ADD13C,0.200000*%
G04 #@! TD*
G04 #@! TA.AperFunction,Conductor*
%ADD14C,0.254000*%
G04 #@! TD*
G04 #@! TA.AperFunction,Conductor*
%ADD15C,0.100000*%
G04 #@! TD*
G04 APERTURE END LIST*
G04 #@! TA.AperFunction,SMDPad,CuDef*
G36*
G01*
X20025000Y-7050000D02*
X20975000Y-7050000D01*
G75*
G02*
X21225000Y-7300000I0J-250000D01*
G01*
X21225000Y-7800000D01*
G75*
G02*
X20975000Y-8050000I-250000J0D01*
G01*
X20025000Y-8050000D01*
G75*
G02*
X19775000Y-7800000I0J250000D01*
G01*
X19775000Y-7300000D01*
G75*
G02*
X20025000Y-7050000I250000J0D01*
G01*
G37*
G04 #@! TD.AperFunction*
G04 #@! TA.AperFunction,SMDPad,CuDef*
G36*
G01*
X20025000Y-8950000D02*
X20975000Y-8950000D01*
G75*
G02*
X21225000Y-9200000I0J-250000D01*
G01*
X21225000Y-9700000D01*
G75*
G02*
X20975000Y-9950000I-250000J0D01*
G01*
X20025000Y-9950000D01*
G75*
G02*
X19775000Y-9700000I0J250000D01*
G01*
X19775000Y-9200000D01*
G75*
G02*
X20025000Y-8950000I250000J0D01*
G01*
G37*
G04 #@! TD.AperFunction*
D10*
X7530000Y-29890000D03*
X10070000Y-29890000D03*
X12610000Y-29890000D03*
X15150000Y-29890000D03*
X17690000Y-29890000D03*
X20230000Y-29890000D03*
X22770000Y-29890000D03*
X25310000Y-29890000D03*
X27850000Y-29890000D03*
X30390000Y-29890000D03*
X32930000Y-29890000D03*
X35470000Y-29890000D03*
X38010000Y-29890000D03*
X40550000Y-29890000D03*
X43090000Y-29890000D03*
G04 #@! TA.AperFunction,SMDPad,CuDef*
G36*
G01*
X23395000Y-17675000D02*
X23095000Y-17675000D01*
G75*
G02*
X22945000Y-17525000I0J150000D01*
G01*
X22945000Y-15775000D01*
G75*
G02*
X23095000Y-15625000I150000J0D01*
G01*
X23395000Y-15625000D01*
G75*
G02*
X23545000Y-15775000I0J-150000D01*
G01*
X23545000Y-17525000D01*
G75*
G02*
X23395000Y-17675000I-150000J0D01*
G01*
G37*
G04 #@! TD.AperFunction*
G04 #@! TA.AperFunction,SMDPad,CuDef*
G36*
G01*
X24665000Y-17675000D02*
X24365000Y-17675000D01*
G75*
G02*
X24215000Y-17525000I0J150000D01*
G01*
X24215000Y-15775000D01*
G75*
G02*
X24365000Y-15625000I150000J0D01*
G01*
X24665000Y-15625000D01*
G75*
G02*
X24815000Y-15775000I0J-150000D01*
G01*
X24815000Y-17525000D01*
G75*
G02*
X24665000Y-17675000I-150000J0D01*
G01*
G37*
G04 #@! TD.AperFunction*
G04 #@! TA.AperFunction,SMDPad,CuDef*
G36*
G01*
X25935000Y-17675000D02*
X25635000Y-17675000D01*
G75*
G02*
X25485000Y-17525000I0J150000D01*
G01*
X25485000Y-15775000D01*
G75*
G02*
X25635000Y-15625000I150000J0D01*
G01*
X25935000Y-15625000D01*
G75*
G02*
X26085000Y-15775000I0J-150000D01*
G01*
X26085000Y-17525000D01*
G75*
G02*
X25935000Y-17675000I-150000J0D01*
G01*
G37*
G04 #@! TD.AperFunction*
G04 #@! TA.AperFunction,SMDPad,CuDef*
G36*
G01*
X27205000Y-17675000D02*
X26905000Y-17675000D01*
G75*
G02*
X26755000Y-17525000I0J150000D01*
G01*
X26755000Y-15775000D01*
G75*
G02*
X26905000Y-15625000I150000J0D01*
G01*
X27205000Y-15625000D01*
G75*
G02*
X27355000Y-15775000I0J-150000D01*
G01*
X27355000Y-17525000D01*
G75*
G02*
X27205000Y-17675000I-150000J0D01*
G01*
G37*
G04 #@! TD.AperFunction*
G04 #@! TA.AperFunction,SMDPad,CuDef*
G36*
G01*
X28475000Y-17675000D02*
X28175000Y-17675000D01*
G75*
G02*
X28025000Y-17525000I0J150000D01*
G01*
X28025000Y-15775000D01*
G75*
G02*
X28175000Y-15625000I150000J0D01*
G01*
X28475000Y-15625000D01*
G75*
G02*
X28625000Y-15775000I0J-150000D01*
G01*
X28625000Y-17525000D01*
G75*
G02*
X28475000Y-17675000I-150000J0D01*
G01*
G37*
G04 #@! TD.AperFunction*
G04 #@! TA.AperFunction,SMDPad,CuDef*
G36*
G01*
X29745000Y-17675000D02*
X29445000Y-17675000D01*
G75*
G02*
X29295000Y-17525000I0J150000D01*
G01*
X29295000Y-15775000D01*
G75*
G02*
X29445000Y-15625000I150000J0D01*
G01*
X29745000Y-15625000D01*
G75*
G02*
X29895000Y-15775000I0J-150000D01*
G01*
X29895000Y-17525000D01*
G75*
G02*
X29745000Y-17675000I-150000J0D01*
G01*
G37*
G04 #@! TD.AperFunction*
G04 #@! TA.AperFunction,SMDPad,CuDef*
G36*
G01*
X31015000Y-17675000D02*
X30715000Y-17675000D01*
G75*
G02*
X30565000Y-17525000I0J150000D01*
G01*
X30565000Y-15775000D01*
G75*
G02*
X30715000Y-15625000I150000J0D01*
G01*
X31015000Y-15625000D01*
G75*
G02*
X31165000Y-15775000I0J-150000D01*
G01*
X31165000Y-17525000D01*
G75*
G02*
X31015000Y-17675000I-150000J0D01*
G01*
G37*
G04 #@! TD.AperFunction*
G04 #@! TA.AperFunction,SMDPad,CuDef*
G36*
G01*
X32285000Y-17675000D02*
X31985000Y-17675000D01*
G75*
G02*
X31835000Y-17525000I0J150000D01*
G01*
X31835000Y-15775000D01*
G75*
G02*
X31985000Y-15625000I150000J0D01*
G01*
X32285000Y-15625000D01*
G75*
G02*
X32435000Y-15775000I0J-150000D01*
G01*
X32435000Y-17525000D01*
G75*
G02*
X32285000Y-17675000I-150000J0D01*
G01*
G37*
G04 #@! TD.AperFunction*
G04 #@! TA.AperFunction,SMDPad,CuDef*
G36*
G01*
X33555000Y-17675000D02*
X33255000Y-17675000D01*
G75*
G02*
X33105000Y-17525000I0J150000D01*
G01*
X33105000Y-15775000D01*
G75*
G02*
X33255000Y-15625000I150000J0D01*
G01*
X33555000Y-15625000D01*
G75*
G02*
X33705000Y-15775000I0J-150000D01*
G01*
X33705000Y-17525000D01*
G75*
G02*
X33555000Y-17675000I-150000J0D01*
G01*
G37*
G04 #@! TD.AperFunction*
G04 #@! TA.AperFunction,SMDPad,CuDef*
G36*
G01*
X34825000Y-17675000D02*
X34525000Y-17675000D01*
G75*
G02*
X34375000Y-17525000I0J150000D01*
G01*
X34375000Y-15775000D01*
G75*
G02*
X34525000Y-15625000I150000J0D01*
G01*
X34825000Y-15625000D01*
G75*
G02*
X34975000Y-15775000I0J-150000D01*
G01*
X34975000Y-17525000D01*
G75*
G02*
X34825000Y-17675000I-150000J0D01*
G01*
G37*
G04 #@! TD.AperFunction*
G04 #@! TA.AperFunction,SMDPad,CuDef*
G36*
G01*
X36095000Y-17675000D02*
X35795000Y-17675000D01*
G75*
G02*
X35645000Y-17525000I0J150000D01*
G01*
X35645000Y-15775000D01*
G75*
G02*
X35795000Y-15625000I150000J0D01*
G01*
X36095000Y-15625000D01*
G75*
G02*
X36245000Y-15775000I0J-150000D01*
G01*
X36245000Y-17525000D01*
G75*
G02*
X36095000Y-17675000I-150000J0D01*
G01*
G37*
G04 #@! TD.AperFunction*
G04 #@! TA.AperFunction,SMDPad,CuDef*
G36*
G01*
X37365000Y-17675000D02*
X37065000Y-17675000D01*
G75*
G02*
X36915000Y-17525000I0J150000D01*
G01*
X36915000Y-15775000D01*
G75*
G02*
X37065000Y-15625000I150000J0D01*
G01*
X37365000Y-15625000D01*
G75*
G02*
X37515000Y-15775000I0J-150000D01*
G01*
X37515000Y-17525000D01*
G75*
G02*
X37365000Y-17675000I-150000J0D01*
G01*
G37*
G04 #@! TD.AperFunction*
G04 #@! TA.AperFunction,SMDPad,CuDef*
G36*
G01*
X38635000Y-17675000D02*
X38335000Y-17675000D01*
G75*
G02*
X38185000Y-17525000I0J150000D01*
G01*
X38185000Y-15775000D01*
G75*
G02*
X38335000Y-15625000I150000J0D01*
G01*
X38635000Y-15625000D01*
G75*
G02*
X38785000Y-15775000I0J-150000D01*
G01*
X38785000Y-17525000D01*
G75*
G02*
X38635000Y-17675000I-150000J0D01*
G01*
G37*
G04 #@! TD.AperFunction*
G04 #@! TA.AperFunction,SMDPad,CuDef*
G36*
G01*
X39905000Y-17675000D02*
X39605000Y-17675000D01*
G75*
G02*
X39455000Y-17525000I0J150000D01*
G01*
X39455000Y-15775000D01*
G75*
G02*
X39605000Y-15625000I150000J0D01*
G01*
X39905000Y-15625000D01*
G75*
G02*
X40055000Y-15775000I0J-150000D01*
G01*
X40055000Y-17525000D01*
G75*
G02*
X39905000Y-17675000I-150000J0D01*
G01*
G37*
G04 #@! TD.AperFunction*
G04 #@! TA.AperFunction,SMDPad,CuDef*
G36*
G01*
X39905000Y-8375000D02*
X39605000Y-8375000D01*
G75*
G02*
X39455000Y-8225000I0J150000D01*
G01*
X39455000Y-6475000D01*
G75*
G02*
X39605000Y-6325000I150000J0D01*
G01*
X39905000Y-6325000D01*
G75*
G02*
X40055000Y-6475000I0J-150000D01*
G01*
X40055000Y-8225000D01*
G75*
G02*
X39905000Y-8375000I-150000J0D01*
G01*
G37*
G04 #@! TD.AperFunction*
G04 #@! TA.AperFunction,SMDPad,CuDef*
G36*
G01*
X38635000Y-8375000D02*
X38335000Y-8375000D01*
G75*
G02*
X38185000Y-8225000I0J150000D01*
G01*
X38185000Y-6475000D01*
G75*
G02*
X38335000Y-6325000I150000J0D01*
G01*
X38635000Y-6325000D01*
G75*
G02*
X38785000Y-6475000I0J-150000D01*
G01*
X38785000Y-8225000D01*
G75*
G02*
X38635000Y-8375000I-150000J0D01*
G01*
G37*
G04 #@! TD.AperFunction*
G04 #@! TA.AperFunction,SMDPad,CuDef*
G36*
G01*
X37365000Y-8375000D02*
X37065000Y-8375000D01*
G75*
G02*
X36915000Y-8225000I0J150000D01*
G01*
X36915000Y-6475000D01*
G75*
G02*
X37065000Y-6325000I150000J0D01*
G01*
X37365000Y-6325000D01*
G75*
G02*
X37515000Y-6475000I0J-150000D01*
G01*
X37515000Y-8225000D01*
G75*
G02*
X37365000Y-8375000I-150000J0D01*
G01*
G37*
G04 #@! TD.AperFunction*
G04 #@! TA.AperFunction,SMDPad,CuDef*
G36*
G01*
X36095000Y-8375000D02*
X35795000Y-8375000D01*
G75*
G02*
X35645000Y-8225000I0J150000D01*
G01*
X35645000Y-6475000D01*
G75*
G02*
X35795000Y-6325000I150000J0D01*
G01*
X36095000Y-6325000D01*
G75*
G02*
X36245000Y-6475000I0J-150000D01*
G01*
X36245000Y-8225000D01*
G75*
G02*
X36095000Y-8375000I-150000J0D01*
G01*
G37*
G04 #@! TD.AperFunction*
G04 #@! TA.AperFunction,SMDPad,CuDef*
G36*
G01*
X34825000Y-8375000D02*
X34525000Y-8375000D01*
G75*
G02*
X34375000Y-8225000I0J150000D01*
G01*
X34375000Y-6475000D01*
G75*
G02*
X34525000Y-6325000I150000J0D01*
G01*
X34825000Y-6325000D01*
G75*
G02*
X34975000Y-6475000I0J-150000D01*
G01*
X34975000Y-8225000D01*
G75*
G02*
X34825000Y-8375000I-150000J0D01*
G01*
G37*
G04 #@! TD.AperFunction*
G04 #@! TA.AperFunction,SMDPad,CuDef*
G36*
G01*
X33555000Y-8375000D02*
X33255000Y-8375000D01*
G75*
G02*
X33105000Y-8225000I0J150000D01*
G01*
X33105000Y-6475000D01*
G75*
G02*
X33255000Y-6325000I150000J0D01*
G01*
X33555000Y-6325000D01*
G75*
G02*
X33705000Y-6475000I0J-150000D01*
G01*
X33705000Y-8225000D01*
G75*
G02*
X33555000Y-8375000I-150000J0D01*
G01*
G37*
G04 #@! TD.AperFunction*
G04 #@! TA.AperFunction,SMDPad,CuDef*
G36*
G01*
X32285000Y-8375000D02*
X31985000Y-8375000D01*
G75*
G02*
X31835000Y-8225000I0J150000D01*
G01*
X31835000Y-6475000D01*
G75*
G02*
X31985000Y-6325000I150000J0D01*
G01*
X32285000Y-6325000D01*
G75*
G02*
X32435000Y-6475000I0J-150000D01*
G01*
X32435000Y-8225000D01*
G75*
G02*
X32285000Y-8375000I-150000J0D01*
G01*
G37*
G04 #@! TD.AperFunction*
G04 #@! TA.AperFunction,SMDPad,CuDef*
G36*
G01*
X31015000Y-8375000D02*
X30715000Y-8375000D01*
G75*
G02*
X30565000Y-8225000I0J150000D01*
G01*
X30565000Y-6475000D01*
G75*
G02*
X30715000Y-6325000I150000J0D01*
G01*
X31015000Y-6325000D01*
G75*
G02*
X31165000Y-6475000I0J-150000D01*
G01*
X31165000Y-8225000D01*
G75*
G02*
X31015000Y-8375000I-150000J0D01*
G01*
G37*
G04 #@! TD.AperFunction*
G04 #@! TA.AperFunction,SMDPad,CuDef*
G36*
G01*
X29745000Y-8375000D02*
X29445000Y-8375000D01*
G75*
G02*
X29295000Y-8225000I0J150000D01*
G01*
X29295000Y-6475000D01*
G75*
G02*
X29445000Y-6325000I150000J0D01*
G01*
X29745000Y-6325000D01*
G75*
G02*
X29895000Y-6475000I0J-150000D01*
G01*
X29895000Y-8225000D01*
G75*
G02*
X29745000Y-8375000I-150000J0D01*
G01*
G37*
G04 #@! TD.AperFunction*
G04 #@! TA.AperFunction,SMDPad,CuDef*
G36*
G01*
X28475000Y-8375000D02*
X28175000Y-8375000D01*
G75*
G02*
X28025000Y-8225000I0J150000D01*
G01*
X28025000Y-6475000D01*
G75*
G02*
X28175000Y-6325000I150000J0D01*
G01*
X28475000Y-6325000D01*
G75*
G02*
X28625000Y-6475000I0J-150000D01*
G01*
X28625000Y-8225000D01*
G75*
G02*
X28475000Y-8375000I-150000J0D01*
G01*
G37*
G04 #@! TD.AperFunction*
G04 #@! TA.AperFunction,SMDPad,CuDef*
G36*
G01*
X27205000Y-8375000D02*
X26905000Y-8375000D01*
G75*
G02*
X26755000Y-8225000I0J150000D01*
G01*
X26755000Y-6475000D01*
G75*
G02*
X26905000Y-6325000I150000J0D01*
G01*
X27205000Y-6325000D01*
G75*
G02*
X27355000Y-6475000I0J-150000D01*
G01*
X27355000Y-8225000D01*
G75*
G02*
X27205000Y-8375000I-150000J0D01*
G01*
G37*
G04 #@! TD.AperFunction*
G04 #@! TA.AperFunction,SMDPad,CuDef*
G36*
G01*
X25935000Y-8375000D02*
X25635000Y-8375000D01*
G75*
G02*
X25485000Y-8225000I0J150000D01*
G01*
X25485000Y-6475000D01*
G75*
G02*
X25635000Y-6325000I150000J0D01*
G01*
X25935000Y-6325000D01*
G75*
G02*
X26085000Y-6475000I0J-150000D01*
G01*
X26085000Y-8225000D01*
G75*
G02*
X25935000Y-8375000I-150000J0D01*
G01*
G37*
G04 #@! TD.AperFunction*
G04 #@! TA.AperFunction,SMDPad,CuDef*
G36*
G01*
X24665000Y-8375000D02*
X24365000Y-8375000D01*
G75*
G02*
X24215000Y-8225000I0J150000D01*
G01*
X24215000Y-6475000D01*
G75*
G02*
X24365000Y-6325000I150000J0D01*
G01*
X24665000Y-6325000D01*
G75*
G02*
X24815000Y-6475000I0J-150000D01*
G01*
X24815000Y-8225000D01*
G75*
G02*
X24665000Y-8375000I-150000J0D01*
G01*
G37*
G04 #@! TD.AperFunction*
G04 #@! TA.AperFunction,SMDPad,CuDef*
G36*
G01*
X23395000Y-8375000D02*
X23095000Y-8375000D01*
G75*
G02*
X22945000Y-8225000I0J150000D01*
G01*
X22945000Y-6475000D01*
G75*
G02*
X23095000Y-6325000I150000J0D01*
G01*
X23395000Y-6325000D01*
G75*
G02*
X23545000Y-6475000I0J-150000D01*
G01*
X23545000Y-8225000D01*
G75*
G02*
X23395000Y-8375000I-150000J0D01*
G01*
G37*
G04 #@! TD.AperFunction*
D11*
X20500000Y-10720000D03*
X39950000Y-19000000D03*
X9270000Y-23240000D03*
X25409300Y-10203200D03*
X13640000Y-20920000D03*
X11470000Y-20940000D03*
X25275210Y-11395010D03*
X25795342Y-12321796D03*
X25511500Y-13533400D03*
X25542261Y-14714990D03*
X25878800Y-8799100D03*
X28014723Y-8881954D03*
X28634506Y-8768887D03*
X30179300Y-21642700D03*
X32033600Y-8785200D03*
X28644900Y-20064400D03*
X33290300Y-25499400D03*
X29219118Y-9801810D03*
X30718100Y-20058300D03*
X30865000Y-18095000D03*
X40550000Y-25050000D03*
D12*
X20501600Y-9448400D02*
X20500000Y-9450000D01*
X23245000Y-7350000D02*
X22140000Y-7350000D01*
X22140000Y-7350000D02*
X21940000Y-7550000D01*
X21940000Y-7550000D02*
X20500000Y-7550000D01*
X20500000Y-7550000D02*
X19460000Y-7550000D01*
X9270000Y-17740000D02*
X9270000Y-23240000D01*
X19460000Y-7550000D02*
X9270000Y-17740000D01*
D13*
X29325222Y-10428199D02*
X25634299Y-10428199D01*
X30865000Y-7350000D02*
X30865000Y-8888421D01*
X30865000Y-8888421D02*
X29325222Y-10428199D01*
X25634299Y-10428199D02*
X25409300Y-10203200D01*
X33405000Y-7350000D02*
X33405000Y-8855000D01*
X33405000Y-8855000D02*
X31370000Y-10890000D01*
X31370000Y-10890000D02*
X23670000Y-10890000D01*
X23670000Y-10890000D02*
X13640000Y-20920000D01*
X11470000Y-24030000D02*
X10070000Y-25430000D01*
X11470000Y-20940000D02*
X11470000Y-24030000D01*
X10070000Y-25430000D02*
X10070000Y-29890000D01*
X34675000Y-8535000D02*
X31939989Y-11270011D01*
X31939989Y-11270011D02*
X25400209Y-11270011D01*
X25400209Y-11270011D02*
X25275210Y-11395010D01*
X34675000Y-7350000D02*
X34675000Y-8535000D01*
X24515000Y-7350000D02*
X24515000Y-9297596D01*
X24515000Y-9297596D02*
X12610000Y-21202596D01*
X12610000Y-21202596D02*
X12610000Y-29890000D01*
X37215000Y-8675000D02*
X33568204Y-12321796D01*
X37215000Y-7350000D02*
X37215000Y-8675000D01*
X33568204Y-12321796D02*
X25795342Y-12321796D01*
X15150000Y-20970000D02*
X15150000Y-29890000D01*
X35945000Y-8375000D02*
X32669978Y-11650022D01*
X35945000Y-7350000D02*
X35945000Y-8375000D01*
X32669978Y-11650022D02*
X25767602Y-11650022D01*
X25767602Y-11650022D02*
X25517612Y-11900012D01*
X24219988Y-11900012D02*
X15150000Y-20970000D01*
X25517612Y-11900012D02*
X24219988Y-11900012D01*
X34596600Y-13533400D02*
X25511500Y-13533400D01*
X39755000Y-8375000D02*
X34596600Y-13533400D01*
X39755000Y-7350000D02*
X39755000Y-8375000D01*
X38485000Y-7350000D02*
X38485000Y-8375000D01*
X17690000Y-19120000D02*
X17690000Y-29890000D01*
X23983203Y-12826797D02*
X17690000Y-19120000D01*
X34033203Y-12826797D02*
X23983203Y-12826797D01*
X38485000Y-8375000D02*
X34033203Y-12826797D01*
X36424990Y-14714990D02*
X25542261Y-14714990D01*
X37215000Y-15505000D02*
X36424990Y-14714990D01*
X37215000Y-16650000D02*
X37215000Y-15505000D01*
X20230000Y-17180000D02*
X20230000Y-29890000D01*
X23200012Y-14209988D02*
X20230000Y-17180000D01*
X37069988Y-14209988D02*
X23200012Y-14209988D01*
X38485000Y-15625000D02*
X37069988Y-14209988D01*
X38485000Y-16650000D02*
X38485000Y-15625000D01*
X22310000Y-25399700D02*
X22770000Y-25859700D01*
X22770000Y-25859700D02*
X22770000Y-29890000D01*
X22310000Y-15690000D02*
X22310000Y-25399700D01*
X35600000Y-15220000D02*
X22780000Y-15220000D01*
X35945000Y-15565000D02*
X35600000Y-15220000D01*
X22780000Y-15220000D02*
X22310000Y-15690000D01*
X35945000Y-16650000D02*
X35945000Y-15565000D01*
X25785000Y-7350000D02*
X25785000Y-8705300D01*
X25785000Y-8705300D02*
X25878800Y-8799100D01*
X23245000Y-18015000D02*
X25310000Y-20080000D01*
X23245000Y-16650000D02*
X23245000Y-18015000D01*
X25310000Y-20080000D02*
X25310000Y-29890000D01*
X29595000Y-7350000D02*
X29595000Y-8945000D01*
X28429569Y-9296800D02*
X28014723Y-8881954D01*
X28429569Y-9296800D02*
X29243200Y-9296800D01*
X29243200Y-9296800D02*
X29595000Y-8945000D01*
X24515000Y-16650000D02*
X24515000Y-17775500D01*
X24515000Y-17775500D02*
X27850000Y-21110500D01*
X27850000Y-21110500D02*
X27850000Y-29890000D01*
X28325000Y-7350000D02*
X28325000Y-8459381D01*
X28325000Y-8459381D02*
X28634506Y-8768887D01*
X30390000Y-25859700D02*
X30179300Y-25649000D01*
X30179300Y-25649000D02*
X30179300Y-21642700D01*
X30390000Y-29890000D02*
X30390000Y-25859700D01*
X32135000Y-8683800D02*
X32033600Y-8785200D01*
X32135000Y-7350000D02*
X32135000Y-8683800D01*
X25785000Y-16650000D02*
X25785000Y-17685000D01*
X28164400Y-20064400D02*
X28644900Y-20064400D01*
X25785000Y-17685000D02*
X28164400Y-20064400D01*
X32930000Y-25859700D02*
X33290300Y-25499400D01*
X32930000Y-29890000D02*
X32930000Y-25859700D01*
X27055000Y-8643300D02*
X28213510Y-9801810D01*
X27055000Y-7350000D02*
X27055000Y-8643300D01*
X28213510Y-9801810D02*
X29219118Y-9801810D01*
X28325000Y-16650000D02*
X28325000Y-17665200D01*
X28325000Y-17665200D02*
X30718100Y-20058300D01*
X35470000Y-29890000D02*
X35470000Y-25859700D01*
X27055000Y-16650000D02*
X27055000Y-17444700D01*
X27055000Y-17444700D02*
X35470000Y-25859700D01*
X30865000Y-16650000D02*
X30865000Y-18095000D01*
X38010000Y-29890000D02*
X38010000Y-25859700D01*
X29595000Y-16650000D02*
X29595000Y-17583400D01*
X29595000Y-17583400D02*
X37871300Y-25859700D01*
X37871300Y-25859700D02*
X38010000Y-25859700D01*
X33405000Y-17139800D02*
X33405000Y-16650000D01*
X33405000Y-16650000D02*
X33405000Y-17885000D01*
X33405000Y-17885000D02*
X40550000Y-25030000D01*
X40550000Y-25030000D02*
X40550000Y-25050000D01*
X40550000Y-29890000D02*
X40550000Y-25859700D01*
X32135000Y-16650000D02*
X32135000Y-17444700D01*
X32135000Y-17444700D02*
X40550000Y-25859700D01*
X43090000Y-29890000D02*
X43090000Y-25752100D01*
X43090000Y-25752100D02*
X34675000Y-17337100D01*
X34675000Y-17337100D02*
X34675000Y-16650000D01*
D14*
X50790000Y-22705908D02*
X49205909Y-24290000D01*
X45534877Y-24290000D01*
X45500000Y-24286565D01*
X45465123Y-24290000D01*
X45360816Y-24300273D01*
X45226980Y-24340872D01*
X45103637Y-24406800D01*
X44995525Y-24495525D01*
X44906800Y-24603637D01*
X44840872Y-24726980D01*
X44800273Y-24860816D01*
X44786565Y-25000000D01*
X44790000Y-25034876D01*
X44790001Y-33290000D01*
X44578072Y-33290000D01*
X44578072Y-26140000D01*
X44565812Y-26015518D01*
X44529502Y-25895820D01*
X44470537Y-25785506D01*
X44391185Y-25688815D01*
X44294494Y-25609463D01*
X44184180Y-25550498D01*
X44064482Y-25514188D01*
X43940000Y-25501928D01*
X43782184Y-25501928D01*
X43772337Y-25469467D01*
X43704087Y-25341780D01*
X43612238Y-25229862D01*
X43584193Y-25206846D01*
X36546437Y-18169090D01*
X36580000Y-18141546D01*
X36627171Y-18180258D01*
X36763418Y-18253084D01*
X36911255Y-18297929D01*
X37065000Y-18313072D01*
X37365000Y-18313072D01*
X37518745Y-18297929D01*
X37666582Y-18253084D01*
X37802829Y-18180258D01*
X37850000Y-18141546D01*
X37897171Y-18180258D01*
X38033418Y-18253084D01*
X38181255Y-18297929D01*
X38335000Y-18313072D01*
X38635000Y-18313072D01*
X38788745Y-18297929D01*
X38936582Y-18253084D01*
X39070936Y-18181270D01*
X39100506Y-18205537D01*
X39210820Y-18264502D01*
X39330518Y-18300812D01*
X39455000Y-18313072D01*
X39469250Y-18310000D01*
X39628000Y-18151250D01*
X39628000Y-16777000D01*
X39882000Y-16777000D01*
X39882000Y-18151250D01*
X40040750Y-18310000D01*
X40055000Y-18313072D01*
X40179482Y-18300812D01*
X40299180Y-18264502D01*
X40409494Y-18205537D01*
X40506185Y-18126185D01*
X40585537Y-18029494D01*
X40644502Y-17919180D01*
X40680812Y-17799482D01*
X40693072Y-17675000D01*
X40690000Y-16935750D01*
X40531250Y-16777000D01*
X39882000Y-16777000D01*
X39628000Y-16777000D01*
X39608000Y-16777000D01*
X39608000Y-16523000D01*
X39628000Y-16523000D01*
X39628000Y-15148750D01*
X39882000Y-15148750D01*
X39882000Y-16523000D01*
X40531250Y-16523000D01*
X40690000Y-16364250D01*
X40693072Y-15625000D01*
X40680812Y-15500518D01*
X40644502Y-15380820D01*
X40585537Y-15270506D01*
X40506185Y-15173815D01*
X40409494Y-15094463D01*
X40299180Y-15035498D01*
X40179482Y-14999188D01*
X40055000Y-14986928D01*
X40040750Y-14990000D01*
X39882000Y-15148750D01*
X39628000Y-15148750D01*
X39469250Y-14990000D01*
X39455000Y-14986928D01*
X39330518Y-14999188D01*
X39210820Y-15035498D01*
X39100506Y-15094463D01*
X39070936Y-15118730D01*
X38957594Y-15058147D01*
X37615246Y-13715800D01*
X37592226Y-13687750D01*
X37480308Y-13595901D01*
X37352621Y-13527651D01*
X37214073Y-13485623D01*
X37106093Y-13474988D01*
X37069988Y-13471432D01*
X37033883Y-13474988D01*
X35694458Y-13474988D01*
X40227594Y-8941853D01*
X40342829Y-8880258D01*
X40462251Y-8782251D01*
X40560258Y-8662829D01*
X40633084Y-8526582D01*
X40677929Y-8378745D01*
X40693072Y-8225000D01*
X40693072Y-6475000D01*
X40677929Y-6321255D01*
X40633084Y-6173418D01*
X40560258Y-6037171D01*
X40462251Y-5917749D01*
X40342829Y-5819742D01*
X40206582Y-5746916D01*
X40058745Y-5702071D01*
X39905000Y-5686928D01*
X39605000Y-5686928D01*
X39451255Y-5702071D01*
X39303418Y-5746916D01*
X39167171Y-5819742D01*
X39120000Y-5858454D01*
X39072829Y-5819742D01*
X38936582Y-5746916D01*
X38788745Y-5702071D01*
X38635000Y-5686928D01*
X38335000Y-5686928D01*
X38181255Y-5702071D01*
X38033418Y-5746916D01*
X37897171Y-5819742D01*
X37850000Y-5858454D01*
X37802829Y-5819742D01*
X37666582Y-5746916D01*
X37518745Y-5702071D01*
X37365000Y-5686928D01*
X37065000Y-5686928D01*
X36911255Y-5702071D01*
X36763418Y-5746916D01*
X36627171Y-5819742D01*
X36580000Y-5858454D01*
X36532829Y-5819742D01*
X36396582Y-5746916D01*
X36248745Y-5702071D01*
X36095000Y-5686928D01*
X35795000Y-5686928D01*
X35641255Y-5702071D01*
X35493418Y-5746916D01*
X35357171Y-5819742D01*
X35310000Y-5858454D01*
X35262829Y-5819742D01*
X35126582Y-5746916D01*
X34978745Y-5702071D01*
X34825000Y-5686928D01*
X34525000Y-5686928D01*
X34371255Y-5702071D01*
X34223418Y-5746916D01*
X34087171Y-5819742D01*
X34040000Y-5858454D01*
X33992829Y-5819742D01*
X33856582Y-5746916D01*
X33708745Y-5702071D01*
X33555000Y-5686928D01*
X33255000Y-5686928D01*
X33101255Y-5702071D01*
X32953418Y-5746916D01*
X32817171Y-5819742D01*
X32770000Y-5858454D01*
X32722829Y-5819742D01*
X32586582Y-5746916D01*
X32438745Y-5702071D01*
X32285000Y-5686928D01*
X31985000Y-5686928D01*
X31831255Y-5702071D01*
X31683418Y-5746916D01*
X31547171Y-5819742D01*
X31500000Y-5858454D01*
X31452829Y-5819742D01*
X31316582Y-5746916D01*
X31168745Y-5702071D01*
X31015000Y-5686928D01*
X30715000Y-5686928D01*
X30561255Y-5702071D01*
X30413418Y-5746916D01*
X30277171Y-5819742D01*
X30230000Y-5858454D01*
X30182829Y-5819742D01*
X30046582Y-5746916D01*
X29898745Y-5702071D01*
X29745000Y-5686928D01*
X29445000Y-5686928D01*
X29291255Y-5702071D01*
X29143418Y-5746916D01*
X29007171Y-5819742D01*
X28960000Y-5858454D01*
X28912829Y-5819742D01*
X28776582Y-5746916D01*
X28628745Y-5702071D01*
X28475000Y-5686928D01*
X28175000Y-5686928D01*
X28021255Y-5702071D01*
X27873418Y-5746916D01*
X27737171Y-5819742D01*
X27690000Y-5858454D01*
X27642829Y-5819742D01*
X27506582Y-5746916D01*
X27358745Y-5702071D01*
X27205000Y-5686928D01*
X26905000Y-5686928D01*
X26751255Y-5702071D01*
X26603418Y-5746916D01*
X26467171Y-5819742D01*
X26420000Y-5858454D01*
X26372829Y-5819742D01*
X26236582Y-5746916D01*
X26088745Y-5702071D01*
X25935000Y-5686928D01*
X25635000Y-5686928D01*
X25481255Y-5702071D01*
X25333418Y-5746916D01*
X25197171Y-5819742D01*
X25150000Y-5858454D01*
X25102829Y-5819742D01*
X24966582Y-5746916D01*
X24818745Y-5702071D01*
X24665000Y-5686928D01*
X24365000Y-5686928D01*
X24211255Y-5702071D01*
X24063418Y-5746916D01*
X23927171Y-5819742D01*
X23880000Y-5858454D01*
X23832829Y-5819742D01*
X23696582Y-5746916D01*
X23548745Y-5702071D01*
X23395000Y-5686928D01*
X23095000Y-5686928D01*
X22941255Y-5702071D01*
X22793418Y-5746916D01*
X22657171Y-5819742D01*
X22537749Y-5917749D01*
X22439742Y-6037171D01*
X22366916Y-6173418D01*
X22322071Y-6321255D01*
X22306928Y-6475000D01*
X22306928Y-6590000D01*
X22177325Y-6590000D01*
X22140000Y-6586324D01*
X22102675Y-6590000D01*
X22102667Y-6590000D01*
X21991014Y-6600997D01*
X21847753Y-6644454D01*
X21715724Y-6715026D01*
X21669424Y-6753023D01*
X21602962Y-6672038D01*
X21468386Y-6561595D01*
X21314850Y-6479528D01*
X21148254Y-6428992D01*
X20975000Y-6411928D01*
X20025000Y-6411928D01*
X19851746Y-6428992D01*
X19685150Y-6479528D01*
X19531614Y-6561595D01*
X19397038Y-6672038D01*
X19286595Y-6806614D01*
X19285453Y-6808751D01*
X19167753Y-6844454D01*
X19035724Y-6915026D01*
X18919999Y-7009999D01*
X18896201Y-7038997D01*
X8759003Y-17176196D01*
X8729999Y-17199999D01*
X8701275Y-17235000D01*
X8635026Y-17315724D01*
X8575550Y-17426995D01*
X8564454Y-17447754D01*
X8520997Y-17591015D01*
X8510000Y-17702668D01*
X8510000Y-17702678D01*
X8506324Y-17740000D01*
X8510000Y-17777323D01*
X8510001Y-22829460D01*
X8507878Y-22832637D01*
X8443049Y-22989147D01*
X8410000Y-23155297D01*
X8410000Y-23324703D01*
X8443049Y-23490853D01*
X8507878Y-23647363D01*
X8601995Y-23788218D01*
X8721782Y-23908005D01*
X8862637Y-24002122D01*
X9019147Y-24066951D01*
X9185297Y-24100000D01*
X9354703Y-24100000D01*
X9520853Y-24066951D01*
X9677363Y-24002122D01*
X9818218Y-23908005D01*
X9938005Y-23788218D01*
X10032122Y-23647363D01*
X10096951Y-23490853D01*
X10130000Y-23324703D01*
X10130000Y-23155297D01*
X10096951Y-22989147D01*
X10032122Y-22832637D01*
X10030000Y-22829461D01*
X10030000Y-18054801D01*
X18134801Y-9950000D01*
X19136928Y-9950000D01*
X19149188Y-10074482D01*
X19185498Y-10194180D01*
X19244463Y-10304494D01*
X19323815Y-10401185D01*
X19420506Y-10480537D01*
X19530820Y-10539502D01*
X19650518Y-10575812D01*
X19775000Y-10588072D01*
X20214250Y-10585000D01*
X20373000Y-10426250D01*
X20373000Y-9577000D01*
X20627000Y-9577000D01*
X20627000Y-10426250D01*
X20785750Y-10585000D01*
X21225000Y-10588072D01*
X21349482Y-10575812D01*
X21469180Y-10539502D01*
X21579494Y-10480537D01*
X21676185Y-10401185D01*
X21755537Y-10304494D01*
X21814502Y-10194180D01*
X21850812Y-10074482D01*
X21863072Y-9950000D01*
X21860000Y-9735750D01*
X21701250Y-9577000D01*
X20627000Y-9577000D01*
X20373000Y-9577000D01*
X19298750Y-9577000D01*
X19140000Y-9735750D01*
X19136928Y-9950000D01*
X18134801Y-9950000D01*
X19137160Y-8947642D01*
X19136928Y-8950000D01*
X19140000Y-9164250D01*
X19298750Y-9323000D01*
X20373000Y-9323000D01*
X20373000Y-9303000D01*
X20627000Y-9303000D01*
X20627000Y-9323000D01*
X21701250Y-9323000D01*
X21860000Y-9164250D01*
X21863072Y-8950000D01*
X21850812Y-8825518D01*
X21814502Y-8705820D01*
X21755537Y-8595506D01*
X21676185Y-8498815D01*
X21596406Y-8433342D01*
X21602962Y-8427962D01*
X21699770Y-8310000D01*
X21902678Y-8310000D01*
X21940000Y-8313676D01*
X21977322Y-8310000D01*
X21977333Y-8310000D01*
X22088986Y-8299003D01*
X22232247Y-8255546D01*
X22306928Y-8215628D01*
X22306928Y-8225000D01*
X22322071Y-8378745D01*
X22366916Y-8526582D01*
X22439742Y-8662829D01*
X22537749Y-8782251D01*
X22657171Y-8880258D01*
X22793418Y-8953084D01*
X22941255Y-8997929D01*
X23095000Y-9013072D01*
X23395000Y-9013072D01*
X23548745Y-8997929D01*
X23696582Y-8953084D01*
X23780001Y-8908495D01*
X23780001Y-8993148D01*
X12234580Y-20538570D01*
X12232122Y-20532637D01*
X12138005Y-20391782D01*
X12018218Y-20271995D01*
X11877363Y-20177878D01*
X11720853Y-20113049D01*
X11554703Y-20080000D01*
X11385297Y-20080000D01*
X11219147Y-20113049D01*
X11062637Y-20177878D01*
X10921782Y-20271995D01*
X10801995Y-20391782D01*
X10707878Y-20532637D01*
X10643049Y-20689147D01*
X10610000Y-20855297D01*
X10610000Y-21024703D01*
X10643049Y-21190853D01*
X10707878Y-21347363D01*
X10735000Y-21387954D01*
X10735001Y-23725552D01*
X9575808Y-24884746D01*
X9547762Y-24907763D01*
X9455913Y-25019681D01*
X9387663Y-25147368D01*
X9373492Y-25194084D01*
X9345635Y-25285915D01*
X9331444Y-25430000D01*
X9335000Y-25466105D01*
X9335000Y-25501928D01*
X9220000Y-25501928D01*
X9095518Y-25514188D01*
X8975820Y-25550498D01*
X8865506Y-25609463D01*
X8800000Y-25663222D01*
X8734494Y-25609463D01*
X8624180Y-25550498D01*
X8504482Y-25514188D01*
X8380000Y-25501928D01*
X6680000Y-25501928D01*
X6555518Y-25514188D01*
X6435820Y-25550498D01*
X6325506Y-25609463D01*
X6228815Y-25688815D01*
X6149463Y-25785506D01*
X6090498Y-25895820D01*
X6054188Y-26015518D01*
X6041928Y-26140000D01*
X6041928Y-33290000D01*
X5710000Y-33290000D01*
X5710000Y-25034876D01*
X5713435Y-25000000D01*
X5699727Y-24860816D01*
X5659128Y-24726980D01*
X5593200Y-24603637D01*
X5504475Y-24495525D01*
X5396363Y-24406800D01*
X5273020Y-24340872D01*
X5139184Y-24300273D01*
X5034877Y-24290000D01*
X5000000Y-24286565D01*
X4965123Y-24290000D01*
X710000Y-24290000D01*
X710000Y-710000D01*
X50790001Y-710000D01*
X50790000Y-22705908D01*
G04 #@! TA.AperFunction,Conductor*
D15*
G36*
X50790000Y-22705908D02*
G01*
X49205909Y-24290000D01*
X45534877Y-24290000D01*
X45500000Y-24286565D01*
X45465123Y-24290000D01*
X45360816Y-24300273D01*
X45226980Y-24340872D01*
X45103637Y-24406800D01*
X44995525Y-24495525D01*
X44906800Y-24603637D01*
X44840872Y-24726980D01*
X44800273Y-24860816D01*
X44786565Y-25000000D01*
X44790000Y-25034876D01*
X44790001Y-33290000D01*
X44578072Y-33290000D01*
X44578072Y-26140000D01*
X44565812Y-26015518D01*
X44529502Y-25895820D01*
X44470537Y-25785506D01*
X44391185Y-25688815D01*
X44294494Y-25609463D01*
X44184180Y-25550498D01*
X44064482Y-25514188D01*
X43940000Y-25501928D01*
X43782184Y-25501928D01*
X43772337Y-25469467D01*
X43704087Y-25341780D01*
X43612238Y-25229862D01*
X43584193Y-25206846D01*
X36546437Y-18169090D01*
X36580000Y-18141546D01*
X36627171Y-18180258D01*
X36763418Y-18253084D01*
X36911255Y-18297929D01*
X37065000Y-18313072D01*
X37365000Y-18313072D01*
X37518745Y-18297929D01*
X37666582Y-18253084D01*
X37802829Y-18180258D01*
X37850000Y-18141546D01*
X37897171Y-18180258D01*
X38033418Y-18253084D01*
X38181255Y-18297929D01*
X38335000Y-18313072D01*
X38635000Y-18313072D01*
X38788745Y-18297929D01*
X38936582Y-18253084D01*
X39070936Y-18181270D01*
X39100506Y-18205537D01*
X39210820Y-18264502D01*
X39330518Y-18300812D01*
X39455000Y-18313072D01*
X39469250Y-18310000D01*
X39628000Y-18151250D01*
X39628000Y-16777000D01*
X39882000Y-16777000D01*
X39882000Y-18151250D01*
X40040750Y-18310000D01*
X40055000Y-18313072D01*
X40179482Y-18300812D01*
X40299180Y-18264502D01*
X40409494Y-18205537D01*
X40506185Y-18126185D01*
X40585537Y-18029494D01*
X40644502Y-17919180D01*
X40680812Y-17799482D01*
X40693072Y-17675000D01*
X40690000Y-16935750D01*
X40531250Y-16777000D01*
X39882000Y-16777000D01*
X39628000Y-16777000D01*
X39608000Y-16777000D01*
X39608000Y-16523000D01*
X39628000Y-16523000D01*
X39628000Y-15148750D01*
X39882000Y-15148750D01*
X39882000Y-16523000D01*
X40531250Y-16523000D01*
X40690000Y-16364250D01*
X40693072Y-15625000D01*
X40680812Y-15500518D01*
X40644502Y-15380820D01*
X40585537Y-15270506D01*
X40506185Y-15173815D01*
X40409494Y-15094463D01*
X40299180Y-15035498D01*
X40179482Y-14999188D01*
X40055000Y-14986928D01*
X40040750Y-14990000D01*
X39882000Y-15148750D01*
X39628000Y-15148750D01*
X39469250Y-14990000D01*
X39455000Y-14986928D01*
X39330518Y-14999188D01*
X39210820Y-15035498D01*
X39100506Y-15094463D01*
X39070936Y-15118730D01*
X38957594Y-15058147D01*
X37615246Y-13715800D01*
X37592226Y-13687750D01*
X37480308Y-13595901D01*
X37352621Y-13527651D01*
X37214073Y-13485623D01*
X37106093Y-13474988D01*
X37069988Y-13471432D01*
X37033883Y-13474988D01*
X35694458Y-13474988D01*
X40227594Y-8941853D01*
X40342829Y-8880258D01*
X40462251Y-8782251D01*
X40560258Y-8662829D01*
X40633084Y-8526582D01*
X40677929Y-8378745D01*
X40693072Y-8225000D01*
X40693072Y-6475000D01*
X40677929Y-6321255D01*
X40633084Y-6173418D01*
X40560258Y-6037171D01*
X40462251Y-5917749D01*
X40342829Y-5819742D01*
X40206582Y-5746916D01*
X40058745Y-5702071D01*
X39905000Y-5686928D01*
X39605000Y-5686928D01*
X39451255Y-5702071D01*
X39303418Y-5746916D01*
X39167171Y-5819742D01*
X39120000Y-5858454D01*
X39072829Y-5819742D01*
X38936582Y-5746916D01*
X38788745Y-5702071D01*
X38635000Y-5686928D01*
X38335000Y-5686928D01*
X38181255Y-5702071D01*
X38033418Y-5746916D01*
X37897171Y-5819742D01*
X37850000Y-5858454D01*
X37802829Y-5819742D01*
X37666582Y-5746916D01*
X37518745Y-5702071D01*
X37365000Y-5686928D01*
X37065000Y-5686928D01*
X36911255Y-5702071D01*
X36763418Y-5746916D01*
X36627171Y-5819742D01*
X36580000Y-5858454D01*
X36532829Y-5819742D01*
X36396582Y-5746916D01*
X36248745Y-5702071D01*
X36095000Y-5686928D01*
X35795000Y-5686928D01*
X35641255Y-5702071D01*
X35493418Y-5746916D01*
X35357171Y-5819742D01*
X35310000Y-5858454D01*
X35262829Y-5819742D01*
X35126582Y-5746916D01*
X34978745Y-5702071D01*
X34825000Y-5686928D01*
X34525000Y-5686928D01*
X34371255Y-5702071D01*
X34223418Y-5746916D01*
X34087171Y-5819742D01*
X34040000Y-5858454D01*
X33992829Y-5819742D01*
X33856582Y-5746916D01*
X33708745Y-5702071D01*
X33555000Y-5686928D01*
X33255000Y-5686928D01*
X33101255Y-5702071D01*
X32953418Y-5746916D01*
X32817171Y-5819742D01*
X32770000Y-5858454D01*
X32722829Y-5819742D01*
X32586582Y-5746916D01*
X32438745Y-5702071D01*
X32285000Y-5686928D01*
X31985000Y-5686928D01*
X31831255Y-5702071D01*
X31683418Y-5746916D01*
X31547171Y-5819742D01*
X31500000Y-5858454D01*
X31452829Y-5819742D01*
X31316582Y-5746916D01*
X31168745Y-5702071D01*
X31015000Y-5686928D01*
X30715000Y-5686928D01*
X30561255Y-5702071D01*
X30413418Y-5746916D01*
X30277171Y-5819742D01*
X30230000Y-5858454D01*
X30182829Y-5819742D01*
X30046582Y-5746916D01*
X29898745Y-5702071D01*
X29745000Y-5686928D01*
X29445000Y-5686928D01*
X29291255Y-5702071D01*
X29143418Y-5746916D01*
X29007171Y-5819742D01*
X28960000Y-5858454D01*
X28912829Y-5819742D01*
X28776582Y-5746916D01*
X28628745Y-5702071D01*
X28475000Y-5686928D01*
X28175000Y-5686928D01*
X28021255Y-5702071D01*
X27873418Y-5746916D01*
X27737171Y-5819742D01*
X27690000Y-5858454D01*
X27642829Y-5819742D01*
X27506582Y-5746916D01*
X27358745Y-5702071D01*
X27205000Y-5686928D01*
X26905000Y-5686928D01*
X26751255Y-5702071D01*
X26603418Y-5746916D01*
X26467171Y-5819742D01*
X26420000Y-5858454D01*
X26372829Y-5819742D01*
X26236582Y-5746916D01*
X26088745Y-5702071D01*
X25935000Y-5686928D01*
X25635000Y-5686928D01*
X25481255Y-5702071D01*
X25333418Y-5746916D01*
X25197171Y-5819742D01*
X25150000Y-5858454D01*
X25102829Y-5819742D01*
X24966582Y-5746916D01*
X24818745Y-5702071D01*
X24665000Y-5686928D01*
X24365000Y-5686928D01*
X24211255Y-5702071D01*
X24063418Y-5746916D01*
X23927171Y-5819742D01*
X23880000Y-5858454D01*
X23832829Y-5819742D01*
X23696582Y-5746916D01*
X23548745Y-5702071D01*
X23395000Y-5686928D01*
X23095000Y-5686928D01*
X22941255Y-5702071D01*
X22793418Y-5746916D01*
X22657171Y-5819742D01*
X22537749Y-5917749D01*
X22439742Y-6037171D01*
X22366916Y-6173418D01*
X22322071Y-6321255D01*
X22306928Y-6475000D01*
X22306928Y-6590000D01*
X22177325Y-6590000D01*
X22140000Y-6586324D01*
X22102675Y-6590000D01*
X22102667Y-6590000D01*
X21991014Y-6600997D01*
X21847753Y-6644454D01*
X21715724Y-6715026D01*
X21669424Y-6753023D01*
X21602962Y-6672038D01*
X21468386Y-6561595D01*
X21314850Y-6479528D01*
X21148254Y-6428992D01*
X20975000Y-6411928D01*
X20025000Y-6411928D01*
X19851746Y-6428992D01*
X19685150Y-6479528D01*
X19531614Y-6561595D01*
X19397038Y-6672038D01*
X19286595Y-6806614D01*
X19285453Y-6808751D01*
X19167753Y-6844454D01*
X19035724Y-6915026D01*
X18919999Y-7009999D01*
X18896201Y-7038997D01*
X8759003Y-17176196D01*
X8729999Y-17199999D01*
X8701275Y-17235000D01*
X8635026Y-17315724D01*
X8575550Y-17426995D01*
X8564454Y-17447754D01*
X8520997Y-17591015D01*
X8510000Y-17702668D01*
X8510000Y-17702678D01*
X8506324Y-17740000D01*
X8510000Y-17777323D01*
X8510001Y-22829460D01*
X8507878Y-22832637D01*
X8443049Y-22989147D01*
X8410000Y-23155297D01*
X8410000Y-23324703D01*
X8443049Y-23490853D01*
X8507878Y-23647363D01*
X8601995Y-23788218D01*
X8721782Y-23908005D01*
X8862637Y-24002122D01*
X9019147Y-24066951D01*
X9185297Y-24100000D01*
X9354703Y-24100000D01*
X9520853Y-24066951D01*
X9677363Y-24002122D01*
X9818218Y-23908005D01*
X9938005Y-23788218D01*
X10032122Y-23647363D01*
X10096951Y-23490853D01*
X10130000Y-23324703D01*
X10130000Y-23155297D01*
X10096951Y-22989147D01*
X10032122Y-22832637D01*
X10030000Y-22829461D01*
X10030000Y-18054801D01*
X18134801Y-9950000D01*
X19136928Y-9950000D01*
X19149188Y-10074482D01*
X19185498Y-10194180D01*
X19244463Y-10304494D01*
X19323815Y-10401185D01*
X19420506Y-10480537D01*
X19530820Y-10539502D01*
X19650518Y-10575812D01*
X19775000Y-10588072D01*
X20214250Y-10585000D01*
X20373000Y-10426250D01*
X20373000Y-9577000D01*
X20627000Y-9577000D01*
X20627000Y-10426250D01*
X20785750Y-10585000D01*
X21225000Y-10588072D01*
X21349482Y-10575812D01*
X21469180Y-10539502D01*
X21579494Y-10480537D01*
X21676185Y-10401185D01*
X21755537Y-10304494D01*
X21814502Y-10194180D01*
X21850812Y-10074482D01*
X21863072Y-9950000D01*
X21860000Y-9735750D01*
X21701250Y-9577000D01*
X20627000Y-9577000D01*
X20373000Y-9577000D01*
X19298750Y-9577000D01*
X19140000Y-9735750D01*
X19136928Y-9950000D01*
X18134801Y-9950000D01*
X19137160Y-8947642D01*
X19136928Y-8950000D01*
X19140000Y-9164250D01*
X19298750Y-9323000D01*
X20373000Y-9323000D01*
X20373000Y-9303000D01*
X20627000Y-9303000D01*
X20627000Y-9323000D01*
X21701250Y-9323000D01*
X21860000Y-9164250D01*
X21863072Y-8950000D01*
X21850812Y-8825518D01*
X21814502Y-8705820D01*
X21755537Y-8595506D01*
X21676185Y-8498815D01*
X21596406Y-8433342D01*
X21602962Y-8427962D01*
X21699770Y-8310000D01*
X21902678Y-8310000D01*
X21940000Y-8313676D01*
X21977322Y-8310000D01*
X21977333Y-8310000D01*
X22088986Y-8299003D01*
X22232247Y-8255546D01*
X22306928Y-8215628D01*
X22306928Y-8225000D01*
X22322071Y-8378745D01*
X22366916Y-8526582D01*
X22439742Y-8662829D01*
X22537749Y-8782251D01*
X22657171Y-8880258D01*
X22793418Y-8953084D01*
X22941255Y-8997929D01*
X23095000Y-9013072D01*
X23395000Y-9013072D01*
X23548745Y-8997929D01*
X23696582Y-8953084D01*
X23780001Y-8908495D01*
X23780001Y-8993148D01*
X12234580Y-20538570D01*
X12232122Y-20532637D01*
X12138005Y-20391782D01*
X12018218Y-20271995D01*
X11877363Y-20177878D01*
X11720853Y-20113049D01*
X11554703Y-20080000D01*
X11385297Y-20080000D01*
X11219147Y-20113049D01*
X11062637Y-20177878D01*
X10921782Y-20271995D01*
X10801995Y-20391782D01*
X10707878Y-20532637D01*
X10643049Y-20689147D01*
X10610000Y-20855297D01*
X10610000Y-21024703D01*
X10643049Y-21190853D01*
X10707878Y-21347363D01*
X10735000Y-21387954D01*
X10735001Y-23725552D01*
X9575808Y-24884746D01*
X9547762Y-24907763D01*
X9455913Y-25019681D01*
X9387663Y-25147368D01*
X9373492Y-25194084D01*
X9345635Y-25285915D01*
X9331444Y-25430000D01*
X9335000Y-25466105D01*
X9335000Y-25501928D01*
X9220000Y-25501928D01*
X9095518Y-25514188D01*
X8975820Y-25550498D01*
X8865506Y-25609463D01*
X8800000Y-25663222D01*
X8734494Y-25609463D01*
X8624180Y-25550498D01*
X8504482Y-25514188D01*
X8380000Y-25501928D01*
X6680000Y-25501928D01*
X6555518Y-25514188D01*
X6435820Y-25550498D01*
X6325506Y-25609463D01*
X6228815Y-25688815D01*
X6149463Y-25785506D01*
X6090498Y-25895820D01*
X6054188Y-26015518D01*
X6041928Y-26140000D01*
X6041928Y-33290000D01*
X5710000Y-33290000D01*
X5710000Y-25034876D01*
X5713435Y-25000000D01*
X5699727Y-24860816D01*
X5659128Y-24726980D01*
X5593200Y-24603637D01*
X5504475Y-24495525D01*
X5396363Y-24406800D01*
X5273020Y-24340872D01*
X5139184Y-24300273D01*
X5034877Y-24290000D01*
X5000000Y-24286565D01*
X4965123Y-24290000D01*
X710000Y-24290000D01*
X710000Y-710000D01*
X50790001Y-710000D01*
X50790000Y-22705908D01*
G37*
G04 #@! TD.AperFunction*
M02*
