G04 #@! TF.GenerationSoftware,KiCad,Pcbnew,(5.1.8)-1*
G04 #@! TF.CreationDate,2020-11-28T19:45:41+01:00*
G04 #@! TF.ProjectId,MM1_EEPROM_32k_A,4d4d315f-4545-4505-924f-4d5f33326b5f,R1*
G04 #@! TF.SameCoordinates,PX6b49d20PY52f83c0*
G04 #@! TF.FileFunction,Legend,Top*
G04 #@! TF.FilePolarity,Positive*
%FSLAX46Y46*%
G04 Gerber Fmt 4.6, Leading zero omitted, Abs format (unit mm)*
G04 Created by KiCad (PCBNEW (5.1.8)-1) date 2020-11-28 19:45:41*
%MOMM*%
%LPD*%
G01*
G04 APERTURE LIST*
%ADD10C,0.150000*%
%ADD11C,0.300000*%
%ADD12C,0.120000*%
G04 APERTURE END LIST*
D10*
X1761904Y-23000000D02*
X1666666Y-22952380D01*
X1523809Y-22952380D01*
X1380952Y-23000000D01*
X1285714Y-23095238D01*
X1238095Y-23190476D01*
X1190476Y-23380952D01*
X1190476Y-23523809D01*
X1238095Y-23714285D01*
X1285714Y-23809523D01*
X1380952Y-23904761D01*
X1523809Y-23952380D01*
X1619047Y-23952380D01*
X1761904Y-23904761D01*
X1809523Y-23857142D01*
X1809523Y-23523809D01*
X1619047Y-23523809D01*
X2761904Y-23000000D02*
X2666666Y-22952380D01*
X2523809Y-22952380D01*
X2380952Y-23000000D01*
X2285714Y-23095238D01*
X2238095Y-23190476D01*
X2190476Y-23380952D01*
X2190476Y-23523809D01*
X2238095Y-23714285D01*
X2285714Y-23809523D01*
X2380952Y-23904761D01*
X2523809Y-23952380D01*
X2619047Y-23952380D01*
X2761904Y-23904761D01*
X2809523Y-23857142D01*
X2809523Y-23523809D01*
X2619047Y-23523809D01*
X48190476Y-952380D02*
X48761904Y-952380D01*
X48476190Y-1952380D02*
X48476190Y-952380D01*
X49285714Y-952380D02*
X49476190Y-952380D01*
X49571428Y-1000000D01*
X49666666Y-1095238D01*
X49714285Y-1285714D01*
X49714285Y-1619047D01*
X49666666Y-1809523D01*
X49571428Y-1904761D01*
X49476190Y-1952380D01*
X49285714Y-1952380D01*
X49190476Y-1904761D01*
X49095238Y-1809523D01*
X49047619Y-1619047D01*
X49047619Y-1285714D01*
X49095238Y-1095238D01*
X49190476Y-1000000D01*
X49285714Y-952380D01*
X50142857Y-1952380D02*
X50142857Y-952380D01*
X50523809Y-952380D01*
X50619047Y-1000000D01*
X50666666Y-1047619D01*
X50714285Y-1142857D01*
X50714285Y-1285714D01*
X50666666Y-1380952D01*
X50619047Y-1428571D01*
X50523809Y-1476190D01*
X50142857Y-1476190D01*
D11*
X1535714Y-3178571D02*
X1535714Y-1678571D01*
X2035714Y-2750000D01*
X2535714Y-1678571D01*
X2535714Y-3178571D01*
X3250000Y-3178571D02*
X3250000Y-1678571D01*
X3750000Y-2750000D01*
X4250000Y-1678571D01*
X4250000Y-3178571D01*
X5750000Y-3178571D02*
X4892857Y-3178571D01*
X5321428Y-3178571D02*
X5321428Y-1678571D01*
X5178571Y-1892857D01*
X5035714Y-2035714D01*
X4892857Y-2107142D01*
X6035714Y-3321428D02*
X7178571Y-3321428D01*
X7535714Y-2392857D02*
X8035714Y-2392857D01*
X8250000Y-3178571D02*
X7535714Y-3178571D01*
X7535714Y-1678571D01*
X8250000Y-1678571D01*
X8892857Y-2392857D02*
X9392857Y-2392857D01*
X9607142Y-3178571D02*
X8892857Y-3178571D01*
X8892857Y-1678571D01*
X9607142Y-1678571D01*
X10250000Y-3178571D02*
X10250000Y-1678571D01*
X10821428Y-1678571D01*
X10964285Y-1750000D01*
X11035714Y-1821428D01*
X11107142Y-1964285D01*
X11107142Y-2178571D01*
X11035714Y-2321428D01*
X10964285Y-2392857D01*
X10821428Y-2464285D01*
X10250000Y-2464285D01*
X12607142Y-3178571D02*
X12107142Y-2464285D01*
X11750000Y-3178571D02*
X11750000Y-1678571D01*
X12321428Y-1678571D01*
X12464285Y-1750000D01*
X12535714Y-1821428D01*
X12607142Y-1964285D01*
X12607142Y-2178571D01*
X12535714Y-2321428D01*
X12464285Y-2392857D01*
X12321428Y-2464285D01*
X11750000Y-2464285D01*
X13535714Y-1678571D02*
X13821428Y-1678571D01*
X13964285Y-1750000D01*
X14107142Y-1892857D01*
X14178571Y-2178571D01*
X14178571Y-2678571D01*
X14107142Y-2964285D01*
X13964285Y-3107142D01*
X13821428Y-3178571D01*
X13535714Y-3178571D01*
X13392857Y-3107142D01*
X13250000Y-2964285D01*
X13178571Y-2678571D01*
X13178571Y-2178571D01*
X13250000Y-1892857D01*
X13392857Y-1750000D01*
X13535714Y-1678571D01*
X14821428Y-3178571D02*
X14821428Y-1678571D01*
X15321428Y-2750000D01*
X15821428Y-1678571D01*
X15821428Y-3178571D01*
X16178571Y-3321428D02*
X17321428Y-3321428D01*
X17535714Y-1678571D02*
X18464285Y-1678571D01*
X17964285Y-2250000D01*
X18178571Y-2250000D01*
X18321428Y-2321428D01*
X18392857Y-2392857D01*
X18464285Y-2535714D01*
X18464285Y-2892857D01*
X18392857Y-3035714D01*
X18321428Y-3107142D01*
X18178571Y-3178571D01*
X17750000Y-3178571D01*
X17607142Y-3107142D01*
X17535714Y-3035714D01*
X19035714Y-1821428D02*
X19107142Y-1750000D01*
X19250000Y-1678571D01*
X19607142Y-1678571D01*
X19750000Y-1750000D01*
X19821428Y-1821428D01*
X19892857Y-1964285D01*
X19892857Y-2107142D01*
X19821428Y-2321428D01*
X18964285Y-3178571D01*
X19892857Y-3178571D01*
X20535714Y-3178571D02*
X20535714Y-1678571D01*
X20678571Y-2607142D02*
X21107142Y-3178571D01*
X21107142Y-2178571D02*
X20535714Y-2750000D01*
X21392857Y-3321428D02*
X22535714Y-3321428D01*
X22821428Y-2750000D02*
X23535714Y-2750000D01*
X22678571Y-3178571D02*
X23178571Y-1678571D01*
X23678571Y-3178571D01*
D12*
X19765000Y-8238748D02*
X19765000Y-8761252D01*
X21235000Y-8238748D02*
X21235000Y-8761252D01*
X40560000Y-12000000D02*
X40560000Y-8140000D01*
X40560000Y-8140000D02*
X40315000Y-8140000D01*
X40560000Y-12000000D02*
X40560000Y-15860000D01*
X40560000Y-15860000D02*
X40315000Y-15860000D01*
X22440000Y-12000000D02*
X22440000Y-8140000D01*
X22440000Y-8140000D02*
X22685000Y-8140000D01*
X22440000Y-12000000D02*
X22440000Y-15860000D01*
X22440000Y-15860000D02*
X22685000Y-15860000D01*
X22685000Y-15860000D02*
X22685000Y-17675000D01*
D10*
X18857142Y-8666666D02*
X18904761Y-8714285D01*
X18952380Y-8857142D01*
X18952380Y-8952380D01*
X18904761Y-9095238D01*
X18809523Y-9190476D01*
X18714285Y-9238095D01*
X18523809Y-9285714D01*
X18380952Y-9285714D01*
X18190476Y-9238095D01*
X18095238Y-9190476D01*
X18000000Y-9095238D01*
X17952380Y-8952380D01*
X17952380Y-8857142D01*
X18000000Y-8714285D01*
X18047619Y-8666666D01*
X18047619Y-8285714D02*
X18000000Y-8238095D01*
X17952380Y-8142857D01*
X17952380Y-7904761D01*
X18000000Y-7809523D01*
X18047619Y-7761904D01*
X18142857Y-7714285D01*
X18238095Y-7714285D01*
X18380952Y-7761904D01*
X18952380Y-8333333D01*
X18952380Y-7714285D01*
X43166666Y-22452380D02*
X43166666Y-23166666D01*
X43119047Y-23309523D01*
X43023809Y-23404761D01*
X42880952Y-23452380D01*
X42785714Y-23452380D01*
X44166666Y-23452380D02*
X43595238Y-23452380D01*
X43880952Y-23452380D02*
X43880952Y-22452380D01*
X43785714Y-22595238D01*
X43690476Y-22690476D01*
X43595238Y-22738095D01*
X21052380Y-12761904D02*
X21861904Y-12761904D01*
X21957142Y-12714285D01*
X22004761Y-12666666D01*
X22052380Y-12571428D01*
X22052380Y-12380952D01*
X22004761Y-12285714D01*
X21957142Y-12238095D01*
X21861904Y-12190476D01*
X21052380Y-12190476D01*
X22052380Y-11190476D02*
X22052380Y-11761904D01*
X22052380Y-11476190D02*
X21052380Y-11476190D01*
X21195238Y-11571428D01*
X21290476Y-11666666D01*
X21338095Y-11761904D01*
M02*
