G04 #@! TF.GenerationSoftware,KiCad,Pcbnew,(5.1.8)-1*
G04 #@! TF.CreationDate,2020-11-28T19:45:41+01:00*
G04 #@! TF.ProjectId,MM1_EEPROM_32k_A,4d4d315f-4545-4505-924f-4d5f33326b5f,R1*
G04 #@! TF.SameCoordinates,PX6b49d20PY52f83c0*
G04 #@! TF.FileFunction,Legend,Bot*
G04 #@! TF.FilePolarity,Positive*
%FSLAX46Y46*%
G04 Gerber Fmt 4.6, Leading zero omitted, Abs format (unit mm)*
G04 Created by KiCad (PCBNEW (5.1.8)-1) date 2020-11-28 19:45:41*
%MOMM*%
%LPD*%
G01*
G04 APERTURE LIST*
%ADD10C,0.150000*%
%ADD11C,0.300000*%
%ADD12C,0.500000*%
%ADD13C,0.120000*%
G04 APERTURE END LIST*
D10*
X50333333Y-1428571D02*
X50190476Y-1476190D01*
X50142857Y-1523809D01*
X50095238Y-1619047D01*
X50095238Y-1761904D01*
X50142857Y-1857142D01*
X50190476Y-1904761D01*
X50285714Y-1952380D01*
X50666666Y-1952380D01*
X50666666Y-952380D01*
X50333333Y-952380D01*
X50238095Y-1000000D01*
X50190476Y-1047619D01*
X50142857Y-1142857D01*
X50142857Y-1238095D01*
X50190476Y-1333333D01*
X50238095Y-1380952D01*
X50333333Y-1428571D01*
X50666666Y-1428571D01*
X49476190Y-952380D02*
X49285714Y-952380D01*
X49190476Y-1000000D01*
X49095238Y-1095238D01*
X49047619Y-1285714D01*
X49047619Y-1619047D01*
X49095238Y-1809523D01*
X49190476Y-1904761D01*
X49285714Y-1952380D01*
X49476190Y-1952380D01*
X49571428Y-1904761D01*
X49666666Y-1809523D01*
X49714285Y-1619047D01*
X49714285Y-1285714D01*
X49666666Y-1095238D01*
X49571428Y-1000000D01*
X49476190Y-952380D01*
X48761904Y-952380D02*
X48190476Y-952380D01*
X48476190Y-1952380D02*
X48476190Y-952380D01*
D11*
X23464285Y-3178571D02*
X23464285Y-1678571D01*
X22964285Y-2750000D01*
X22464285Y-1678571D01*
X22464285Y-3178571D01*
X21750000Y-3178571D02*
X21750000Y-1678571D01*
X21250000Y-2750000D01*
X20750000Y-1678571D01*
X20750000Y-3178571D01*
X19250000Y-3178571D02*
X20107142Y-3178571D01*
X19678571Y-3178571D02*
X19678571Y-1678571D01*
X19821428Y-1892857D01*
X19964285Y-2035714D01*
X20107142Y-2107142D01*
X18964285Y-3321428D02*
X17821428Y-3321428D01*
X17464285Y-2392857D02*
X16964285Y-2392857D01*
X16750000Y-3178571D02*
X17464285Y-3178571D01*
X17464285Y-1678571D01*
X16750000Y-1678571D01*
X16107142Y-2392857D02*
X15607142Y-2392857D01*
X15392857Y-3178571D02*
X16107142Y-3178571D01*
X16107142Y-1678571D01*
X15392857Y-1678571D01*
X14750000Y-3178571D02*
X14750000Y-1678571D01*
X14178571Y-1678571D01*
X14035714Y-1750000D01*
X13964285Y-1821428D01*
X13892857Y-1964285D01*
X13892857Y-2178571D01*
X13964285Y-2321428D01*
X14035714Y-2392857D01*
X14178571Y-2464285D01*
X14750000Y-2464285D01*
X12392857Y-3178571D02*
X12892857Y-2464285D01*
X13250000Y-3178571D02*
X13250000Y-1678571D01*
X12678571Y-1678571D01*
X12535714Y-1750000D01*
X12464285Y-1821428D01*
X12392857Y-1964285D01*
X12392857Y-2178571D01*
X12464285Y-2321428D01*
X12535714Y-2392857D01*
X12678571Y-2464285D01*
X13250000Y-2464285D01*
X11464285Y-1678571D02*
X11178571Y-1678571D01*
X11035714Y-1750000D01*
X10892857Y-1892857D01*
X10821428Y-2178571D01*
X10821428Y-2678571D01*
X10892857Y-2964285D01*
X11035714Y-3107142D01*
X11178571Y-3178571D01*
X11464285Y-3178571D01*
X11607142Y-3107142D01*
X11750000Y-2964285D01*
X11821428Y-2678571D01*
X11821428Y-2178571D01*
X11750000Y-1892857D01*
X11607142Y-1750000D01*
X11464285Y-1678571D01*
X10178571Y-3178571D02*
X10178571Y-1678571D01*
X9678571Y-2750000D01*
X9178571Y-1678571D01*
X9178571Y-3178571D01*
X8821428Y-3321428D02*
X7678571Y-3321428D01*
X7464285Y-1678571D02*
X6535714Y-1678571D01*
X7035714Y-2250000D01*
X6821428Y-2250000D01*
X6678571Y-2321428D01*
X6607142Y-2392857D01*
X6535714Y-2535714D01*
X6535714Y-2892857D01*
X6607142Y-3035714D01*
X6678571Y-3107142D01*
X6821428Y-3178571D01*
X7250000Y-3178571D01*
X7392857Y-3107142D01*
X7464285Y-3035714D01*
X5964285Y-1821428D02*
X5892857Y-1750000D01*
X5750000Y-1678571D01*
X5392857Y-1678571D01*
X5250000Y-1750000D01*
X5178571Y-1821428D01*
X5107142Y-1964285D01*
X5107142Y-2107142D01*
X5178571Y-2321428D01*
X6035714Y-3178571D01*
X5107142Y-3178571D01*
X4464285Y-3178571D02*
X4464285Y-1678571D01*
X4321428Y-2607142D02*
X3892857Y-3178571D01*
X3892857Y-2178571D02*
X4464285Y-2750000D01*
X3607142Y-3321428D02*
X2464285Y-3321428D01*
X2178571Y-2750000D02*
X1464285Y-2750000D01*
X2321428Y-3178571D02*
X1821428Y-1678571D01*
X1321428Y-3178571D01*
D12*
X47642857Y-22857142D02*
X49357142Y-22857142D01*
X48500000Y-22857142D02*
X48500000Y-19857142D01*
X48785714Y-20285714D01*
X49071428Y-20571428D01*
X49357142Y-20714285D01*
D13*
X8235000Y-22738748D02*
X8235000Y-23261252D01*
X6765000Y-22738748D02*
X6765000Y-23261252D01*
D10*
X6177142Y-22833333D02*
X6224761Y-22785714D01*
X6272380Y-22642857D01*
X6272380Y-22547619D01*
X6224761Y-22404761D01*
X6129523Y-22309523D01*
X6034285Y-22261904D01*
X5843809Y-22214285D01*
X5700952Y-22214285D01*
X5510476Y-22261904D01*
X5415238Y-22309523D01*
X5320000Y-22404761D01*
X5272380Y-22547619D01*
X5272380Y-22642857D01*
X5320000Y-22785714D01*
X5367619Y-22833333D01*
X6272380Y-23785714D02*
X6272380Y-23214285D01*
X6272380Y-23500000D02*
X5272380Y-23500000D01*
X5415238Y-23404761D01*
X5510476Y-23309523D01*
X5558095Y-23214285D01*
M02*
