G04 #@! TF.GenerationSoftware,KiCad,Pcbnew,(5.1.8)-1*
G04 #@! TF.CreationDate,2020-11-28T19:45:41+01:00*
G04 #@! TF.ProjectId,MM1_EEPROM_32k_A,4d4d315f-4545-4505-924f-4d5f33326b5f,R1*
G04 #@! TF.SameCoordinates,PX6b49d20PY52f83c0*
G04 #@! TF.FileFunction,Soldermask,Top*
G04 #@! TF.FilePolarity,Negative*
%FSLAX46Y46*%
G04 Gerber Fmt 4.6, Leading zero omitted, Abs format (unit mm)*
G04 Created by KiCad (PCBNEW (5.1.8)-1) date 2020-11-28 19:45:41*
%MOMM*%
%LPD*%
G01*
G04 APERTURE LIST*
%ADD10R,1.700000X7.500000*%
G04 APERTURE END LIST*
G36*
G01*
X20025000Y-7050000D02*
X20975000Y-7050000D01*
G75*
G02*
X21225000Y-7300000I0J-250000D01*
G01*
X21225000Y-7800000D01*
G75*
G02*
X20975000Y-8050000I-250000J0D01*
G01*
X20025000Y-8050000D01*
G75*
G02*
X19775000Y-7800000I0J250000D01*
G01*
X19775000Y-7300000D01*
G75*
G02*
X20025000Y-7050000I250000J0D01*
G01*
G37*
G36*
G01*
X20025000Y-8950000D02*
X20975000Y-8950000D01*
G75*
G02*
X21225000Y-9200000I0J-250000D01*
G01*
X21225000Y-9700000D01*
G75*
G02*
X20975000Y-9950000I-250000J0D01*
G01*
X20025000Y-9950000D01*
G75*
G02*
X19775000Y-9700000I0J250000D01*
G01*
X19775000Y-9200000D01*
G75*
G02*
X20025000Y-8950000I250000J0D01*
G01*
G37*
D10*
X7530000Y-29890000D03*
X10070000Y-29890000D03*
X12610000Y-29890000D03*
X15150000Y-29890000D03*
X17690000Y-29890000D03*
X20230000Y-29890000D03*
X22770000Y-29890000D03*
X25310000Y-29890000D03*
X27850000Y-29890000D03*
X30390000Y-29890000D03*
X32930000Y-29890000D03*
X35470000Y-29890000D03*
X38010000Y-29890000D03*
X40550000Y-29890000D03*
X43090000Y-29890000D03*
G36*
G01*
X23395000Y-17675000D02*
X23095000Y-17675000D01*
G75*
G02*
X22945000Y-17525000I0J150000D01*
G01*
X22945000Y-15775000D01*
G75*
G02*
X23095000Y-15625000I150000J0D01*
G01*
X23395000Y-15625000D01*
G75*
G02*
X23545000Y-15775000I0J-150000D01*
G01*
X23545000Y-17525000D01*
G75*
G02*
X23395000Y-17675000I-150000J0D01*
G01*
G37*
G36*
G01*
X24665000Y-17675000D02*
X24365000Y-17675000D01*
G75*
G02*
X24215000Y-17525000I0J150000D01*
G01*
X24215000Y-15775000D01*
G75*
G02*
X24365000Y-15625000I150000J0D01*
G01*
X24665000Y-15625000D01*
G75*
G02*
X24815000Y-15775000I0J-150000D01*
G01*
X24815000Y-17525000D01*
G75*
G02*
X24665000Y-17675000I-150000J0D01*
G01*
G37*
G36*
G01*
X25935000Y-17675000D02*
X25635000Y-17675000D01*
G75*
G02*
X25485000Y-17525000I0J150000D01*
G01*
X25485000Y-15775000D01*
G75*
G02*
X25635000Y-15625000I150000J0D01*
G01*
X25935000Y-15625000D01*
G75*
G02*
X26085000Y-15775000I0J-150000D01*
G01*
X26085000Y-17525000D01*
G75*
G02*
X25935000Y-17675000I-150000J0D01*
G01*
G37*
G36*
G01*
X27205000Y-17675000D02*
X26905000Y-17675000D01*
G75*
G02*
X26755000Y-17525000I0J150000D01*
G01*
X26755000Y-15775000D01*
G75*
G02*
X26905000Y-15625000I150000J0D01*
G01*
X27205000Y-15625000D01*
G75*
G02*
X27355000Y-15775000I0J-150000D01*
G01*
X27355000Y-17525000D01*
G75*
G02*
X27205000Y-17675000I-150000J0D01*
G01*
G37*
G36*
G01*
X28475000Y-17675000D02*
X28175000Y-17675000D01*
G75*
G02*
X28025000Y-17525000I0J150000D01*
G01*
X28025000Y-15775000D01*
G75*
G02*
X28175000Y-15625000I150000J0D01*
G01*
X28475000Y-15625000D01*
G75*
G02*
X28625000Y-15775000I0J-150000D01*
G01*
X28625000Y-17525000D01*
G75*
G02*
X28475000Y-17675000I-150000J0D01*
G01*
G37*
G36*
G01*
X29745000Y-17675000D02*
X29445000Y-17675000D01*
G75*
G02*
X29295000Y-17525000I0J150000D01*
G01*
X29295000Y-15775000D01*
G75*
G02*
X29445000Y-15625000I150000J0D01*
G01*
X29745000Y-15625000D01*
G75*
G02*
X29895000Y-15775000I0J-150000D01*
G01*
X29895000Y-17525000D01*
G75*
G02*
X29745000Y-17675000I-150000J0D01*
G01*
G37*
G36*
G01*
X31015000Y-17675000D02*
X30715000Y-17675000D01*
G75*
G02*
X30565000Y-17525000I0J150000D01*
G01*
X30565000Y-15775000D01*
G75*
G02*
X30715000Y-15625000I150000J0D01*
G01*
X31015000Y-15625000D01*
G75*
G02*
X31165000Y-15775000I0J-150000D01*
G01*
X31165000Y-17525000D01*
G75*
G02*
X31015000Y-17675000I-150000J0D01*
G01*
G37*
G36*
G01*
X32285000Y-17675000D02*
X31985000Y-17675000D01*
G75*
G02*
X31835000Y-17525000I0J150000D01*
G01*
X31835000Y-15775000D01*
G75*
G02*
X31985000Y-15625000I150000J0D01*
G01*
X32285000Y-15625000D01*
G75*
G02*
X32435000Y-15775000I0J-150000D01*
G01*
X32435000Y-17525000D01*
G75*
G02*
X32285000Y-17675000I-150000J0D01*
G01*
G37*
G36*
G01*
X33555000Y-17675000D02*
X33255000Y-17675000D01*
G75*
G02*
X33105000Y-17525000I0J150000D01*
G01*
X33105000Y-15775000D01*
G75*
G02*
X33255000Y-15625000I150000J0D01*
G01*
X33555000Y-15625000D01*
G75*
G02*
X33705000Y-15775000I0J-150000D01*
G01*
X33705000Y-17525000D01*
G75*
G02*
X33555000Y-17675000I-150000J0D01*
G01*
G37*
G36*
G01*
X34825000Y-17675000D02*
X34525000Y-17675000D01*
G75*
G02*
X34375000Y-17525000I0J150000D01*
G01*
X34375000Y-15775000D01*
G75*
G02*
X34525000Y-15625000I150000J0D01*
G01*
X34825000Y-15625000D01*
G75*
G02*
X34975000Y-15775000I0J-150000D01*
G01*
X34975000Y-17525000D01*
G75*
G02*
X34825000Y-17675000I-150000J0D01*
G01*
G37*
G36*
G01*
X36095000Y-17675000D02*
X35795000Y-17675000D01*
G75*
G02*
X35645000Y-17525000I0J150000D01*
G01*
X35645000Y-15775000D01*
G75*
G02*
X35795000Y-15625000I150000J0D01*
G01*
X36095000Y-15625000D01*
G75*
G02*
X36245000Y-15775000I0J-150000D01*
G01*
X36245000Y-17525000D01*
G75*
G02*
X36095000Y-17675000I-150000J0D01*
G01*
G37*
G36*
G01*
X37365000Y-17675000D02*
X37065000Y-17675000D01*
G75*
G02*
X36915000Y-17525000I0J150000D01*
G01*
X36915000Y-15775000D01*
G75*
G02*
X37065000Y-15625000I150000J0D01*
G01*
X37365000Y-15625000D01*
G75*
G02*
X37515000Y-15775000I0J-150000D01*
G01*
X37515000Y-17525000D01*
G75*
G02*
X37365000Y-17675000I-150000J0D01*
G01*
G37*
G36*
G01*
X38635000Y-17675000D02*
X38335000Y-17675000D01*
G75*
G02*
X38185000Y-17525000I0J150000D01*
G01*
X38185000Y-15775000D01*
G75*
G02*
X38335000Y-15625000I150000J0D01*
G01*
X38635000Y-15625000D01*
G75*
G02*
X38785000Y-15775000I0J-150000D01*
G01*
X38785000Y-17525000D01*
G75*
G02*
X38635000Y-17675000I-150000J0D01*
G01*
G37*
G36*
G01*
X39905000Y-17675000D02*
X39605000Y-17675000D01*
G75*
G02*
X39455000Y-17525000I0J150000D01*
G01*
X39455000Y-15775000D01*
G75*
G02*
X39605000Y-15625000I150000J0D01*
G01*
X39905000Y-15625000D01*
G75*
G02*
X40055000Y-15775000I0J-150000D01*
G01*
X40055000Y-17525000D01*
G75*
G02*
X39905000Y-17675000I-150000J0D01*
G01*
G37*
G36*
G01*
X39905000Y-8375000D02*
X39605000Y-8375000D01*
G75*
G02*
X39455000Y-8225000I0J150000D01*
G01*
X39455000Y-6475000D01*
G75*
G02*
X39605000Y-6325000I150000J0D01*
G01*
X39905000Y-6325000D01*
G75*
G02*
X40055000Y-6475000I0J-150000D01*
G01*
X40055000Y-8225000D01*
G75*
G02*
X39905000Y-8375000I-150000J0D01*
G01*
G37*
G36*
G01*
X38635000Y-8375000D02*
X38335000Y-8375000D01*
G75*
G02*
X38185000Y-8225000I0J150000D01*
G01*
X38185000Y-6475000D01*
G75*
G02*
X38335000Y-6325000I150000J0D01*
G01*
X38635000Y-6325000D01*
G75*
G02*
X38785000Y-6475000I0J-150000D01*
G01*
X38785000Y-8225000D01*
G75*
G02*
X38635000Y-8375000I-150000J0D01*
G01*
G37*
G36*
G01*
X37365000Y-8375000D02*
X37065000Y-8375000D01*
G75*
G02*
X36915000Y-8225000I0J150000D01*
G01*
X36915000Y-6475000D01*
G75*
G02*
X37065000Y-6325000I150000J0D01*
G01*
X37365000Y-6325000D01*
G75*
G02*
X37515000Y-6475000I0J-150000D01*
G01*
X37515000Y-8225000D01*
G75*
G02*
X37365000Y-8375000I-150000J0D01*
G01*
G37*
G36*
G01*
X36095000Y-8375000D02*
X35795000Y-8375000D01*
G75*
G02*
X35645000Y-8225000I0J150000D01*
G01*
X35645000Y-6475000D01*
G75*
G02*
X35795000Y-6325000I150000J0D01*
G01*
X36095000Y-6325000D01*
G75*
G02*
X36245000Y-6475000I0J-150000D01*
G01*
X36245000Y-8225000D01*
G75*
G02*
X36095000Y-8375000I-150000J0D01*
G01*
G37*
G36*
G01*
X34825000Y-8375000D02*
X34525000Y-8375000D01*
G75*
G02*
X34375000Y-8225000I0J150000D01*
G01*
X34375000Y-6475000D01*
G75*
G02*
X34525000Y-6325000I150000J0D01*
G01*
X34825000Y-6325000D01*
G75*
G02*
X34975000Y-6475000I0J-150000D01*
G01*
X34975000Y-8225000D01*
G75*
G02*
X34825000Y-8375000I-150000J0D01*
G01*
G37*
G36*
G01*
X33555000Y-8375000D02*
X33255000Y-8375000D01*
G75*
G02*
X33105000Y-8225000I0J150000D01*
G01*
X33105000Y-6475000D01*
G75*
G02*
X33255000Y-6325000I150000J0D01*
G01*
X33555000Y-6325000D01*
G75*
G02*
X33705000Y-6475000I0J-150000D01*
G01*
X33705000Y-8225000D01*
G75*
G02*
X33555000Y-8375000I-150000J0D01*
G01*
G37*
G36*
G01*
X32285000Y-8375000D02*
X31985000Y-8375000D01*
G75*
G02*
X31835000Y-8225000I0J150000D01*
G01*
X31835000Y-6475000D01*
G75*
G02*
X31985000Y-6325000I150000J0D01*
G01*
X32285000Y-6325000D01*
G75*
G02*
X32435000Y-6475000I0J-150000D01*
G01*
X32435000Y-8225000D01*
G75*
G02*
X32285000Y-8375000I-150000J0D01*
G01*
G37*
G36*
G01*
X31015000Y-8375000D02*
X30715000Y-8375000D01*
G75*
G02*
X30565000Y-8225000I0J150000D01*
G01*
X30565000Y-6475000D01*
G75*
G02*
X30715000Y-6325000I150000J0D01*
G01*
X31015000Y-6325000D01*
G75*
G02*
X31165000Y-6475000I0J-150000D01*
G01*
X31165000Y-8225000D01*
G75*
G02*
X31015000Y-8375000I-150000J0D01*
G01*
G37*
G36*
G01*
X29745000Y-8375000D02*
X29445000Y-8375000D01*
G75*
G02*
X29295000Y-8225000I0J150000D01*
G01*
X29295000Y-6475000D01*
G75*
G02*
X29445000Y-6325000I150000J0D01*
G01*
X29745000Y-6325000D01*
G75*
G02*
X29895000Y-6475000I0J-150000D01*
G01*
X29895000Y-8225000D01*
G75*
G02*
X29745000Y-8375000I-150000J0D01*
G01*
G37*
G36*
G01*
X28475000Y-8375000D02*
X28175000Y-8375000D01*
G75*
G02*
X28025000Y-8225000I0J150000D01*
G01*
X28025000Y-6475000D01*
G75*
G02*
X28175000Y-6325000I150000J0D01*
G01*
X28475000Y-6325000D01*
G75*
G02*
X28625000Y-6475000I0J-150000D01*
G01*
X28625000Y-8225000D01*
G75*
G02*
X28475000Y-8375000I-150000J0D01*
G01*
G37*
G36*
G01*
X27205000Y-8375000D02*
X26905000Y-8375000D01*
G75*
G02*
X26755000Y-8225000I0J150000D01*
G01*
X26755000Y-6475000D01*
G75*
G02*
X26905000Y-6325000I150000J0D01*
G01*
X27205000Y-6325000D01*
G75*
G02*
X27355000Y-6475000I0J-150000D01*
G01*
X27355000Y-8225000D01*
G75*
G02*
X27205000Y-8375000I-150000J0D01*
G01*
G37*
G36*
G01*
X25935000Y-8375000D02*
X25635000Y-8375000D01*
G75*
G02*
X25485000Y-8225000I0J150000D01*
G01*
X25485000Y-6475000D01*
G75*
G02*
X25635000Y-6325000I150000J0D01*
G01*
X25935000Y-6325000D01*
G75*
G02*
X26085000Y-6475000I0J-150000D01*
G01*
X26085000Y-8225000D01*
G75*
G02*
X25935000Y-8375000I-150000J0D01*
G01*
G37*
G36*
G01*
X24665000Y-8375000D02*
X24365000Y-8375000D01*
G75*
G02*
X24215000Y-8225000I0J150000D01*
G01*
X24215000Y-6475000D01*
G75*
G02*
X24365000Y-6325000I150000J0D01*
G01*
X24665000Y-6325000D01*
G75*
G02*
X24815000Y-6475000I0J-150000D01*
G01*
X24815000Y-8225000D01*
G75*
G02*
X24665000Y-8375000I-150000J0D01*
G01*
G37*
G36*
G01*
X23395000Y-8375000D02*
X23095000Y-8375000D01*
G75*
G02*
X22945000Y-8225000I0J150000D01*
G01*
X22945000Y-6475000D01*
G75*
G02*
X23095000Y-6325000I150000J0D01*
G01*
X23395000Y-6325000D01*
G75*
G02*
X23545000Y-6475000I0J-150000D01*
G01*
X23545000Y-8225000D01*
G75*
G02*
X23395000Y-8375000I-150000J0D01*
G01*
G37*
M02*
